<?xml version="1.0" encoding="iso-8859-1"?>
<!-- Generator: Adobe Illustrator 19.0.0, SVG Export Plug-In . SVG Version: 6.00 Build 0)  -->
<svg version="1.1" id="Capa_1" xmlns="http://www.w3.org/2000/svg" xmlns:xlink="http://www.w3.org/1999/xlink" x="0px" y="0px"
	 viewBox="0 0 511.999 511.999" style="enable-background:new 0 0 511.999 511.999;" xml:space="preserve" fill="#D5D5D5">
<g>
	<g>
		<path d="M491.018,153.787c-2.066-3.59-6.652-4.826-10.242-2.758c-3.59,2.066-4.825,6.652-2.758,10.242
			C490.614,183.151,497,208.078,497,235.359v188.683c0,12.442-10.123,22.564-22.564,22.564H27.902
			c-7.114,0-12.902-5.788-12.902-12.902s5.788-12.901,12.902-12.901H85.58c4.142,0,7.5-3.358,7.5-7.5c0-4.142-3.358-7.5-7.5-7.5
			H35.402v-53.57h417.432c4.537,0,8.229,3.691,8.229,8.229v37.111c0,4.538-3.691,8.229-8.229,8.229H115.58
			c-4.142,0-7.5,3.358-7.5,7.5c0,4.142,3.358,7.5,7.5,7.5h337.254c12.808,0,23.229-10.421,23.229-23.229v-37.111
			c0-12.809-10.42-23.229-23.229-23.229H27.902c-7.114,0-12.902-5.788-12.902-12.902s5.788-12.902,12.902-12.902h424.932
			c12.808,0,23.229-10.42,23.229-23.229v-37.111c0-12.809-10.417-23.229-23.222-23.229H28.563c-0.162-0.01-0.323-0.019-0.486-0.022
			c-0.03-0.001-0.059,0.003-0.089,0.002c-7.019-0.211-12.805-5.743-12.982-12.531c-0.141-5.354,2.952-10.159,7.877-12.242
			c14.023-5.932,181.353-84.024,247.595-114.964c1.839,3.719,3.347,7.826,4.5,12.342c-20.736,4.073-36.43,22.382-36.43,44.293
			c0,24.894,20.252,45.146,45.146,45.146s45.146-20.252,45.146-45.146c0-22.649-16.766-41.45-38.538-44.658
			c-1.456-6.713-3.529-12.839-6.207-18.339c7.034-3.287,11.555-5.399,12.794-5.979c15.749-7.44,33.59-8.942,50.24-4.229
			c34.016,9.631,81.411,28.938,114.031,66.221c2.728,3.117,7.465,3.434,10.583,0.706c3.118-2.728,3.434-7.466,0.706-10.583
			C437.41,87.83,387.182,67.285,351.215,57.102c-20.138-5.702-41.707-3.89-60.705,5.085c-0.36,0.168-5.677,2.653-14.598,6.821
			c-7.233-8.662-16.689-14.841-28.202-18.296c-3.968-1.191-8.148,1.06-9.339,5.028c-1.19,3.967,1.061,8.149,5.028,9.339
			c7.195,2.159,13.267,5.714,18.23,10.6C194.071,107.23,30.481,183.566,17.04,189.251c-10.648,4.503-17.332,14.886-17.029,26.45
			c0.321,12.259,8.914,22.641,20.392,26.007v55.753C8.649,300.746,0,311.544,0,324.331s8.649,23.584,20.402,26.87v55.634
			C8.649,410.12,0,420.918,0,433.704c0,15.385,12.517,27.902,27.902,27.902h446.533c20.713,0,37.564-16.852,37.564-37.564V235.359
			C511.999,205.418,504.94,177.973,491.018,153.787z M35.402,242.86h417.439v-0.001c4.25,0,7.757,3.245,8.179,7.389
			c0.028,0.276,0.042,0.557,0.042,0.84V288.2c0,4.538-3.691,8.229-8.229,8.229H35.402V242.86z M283.34,114.601
			c0.213,0.018,0.427,0.029,0.643,0.029c0.099,0,0.199-0.019,0.299-0.023c16.351,0.315,29.558,13.705,29.558,30.131
			c0,16.623-13.523,30.146-30.146,30.146s-30.146-13.523-30.146-30.146C253.548,128.234,266.881,114.792,283.34,114.601z"/>
	</g>
</g>
<g>
</g>
<g>
</g>
<g>
</g>
<g>
</g>
<g>
</g>
<g>
</g>
<g>
</g>
<g>
</g>
<g>
</g>
<g>
</g>
<g>
</g>
<g>
</g>
<g>
</g>
<g>
</g>
<g>
</g>
</svg>
